<?xml version="1.0" encoding="utf-8"?>
<!-- Generator: Adobe Illustrator 16.0.0, SVG Export Plug-In . SVG Version: 6.00 Build 0)  -->
<!DOCTYPE svg PUBLIC "-//W3C//DTD SVG 1.1//EN" "http://www.w3.org/Graphics/SVG/1.1/DTD/svg11.dtd">
<svg version="1.1" id="Layer_1" xmlns="http://www.w3.org/2000/svg" xmlns:xlink="http://www.w3.org/1999/xlink" x="0px" y="0px"
	 width="32px" height="32px" viewBox="0 0 32 32" enable-background="new 0 0 32 32" xml:space="preserve">
<path fill="#15316B" d="M16,4c7.72,0,14,4.486,14,10c0,5.514-6.28,10-14,10l-0.829,0.003c-0.549,0-0.909-0.015-1.471-0.099
	l-1.121-0.16l-0.719,0.871c-0.331,0.398-2.017,1.784-3.878,2.676c0.378-1,0.658-2.094,0.683-3.174l0.01-0.061v-1.395l-1.089-0.557
	C4.036,20.29,2,17.336,2,14C2,8.486,8.28,4,16,4z M16,2C7.163,2,0,7.373,0,14c0,4.127,2.445,7.724,6.674,9.885
	c0,0.026-0.008,0.045-0.008,0.073c0,1.793-1.005,3.765-1.594,4.78h0.002C5.027,28.847,5,28.966,5,29.094C5,29.597,5.405,30,5.906,30
	c0.076,0,0.196-0.016,0.24-0.016c0.01,0,0.017,0,0.016,0.004c3.125-0.512,6.561-3.272,7.245-4.105
	c0.702,0.105,1.177,0.12,1.765,0.12C15.419,26.003,15.687,26,16,26c8.836,0,16-5.372,16-12C32,7.373,24.836,2,16,2L16,2z"/>
</svg>
