<?xml version="1.0" encoding="utf-8"?>
<!-- Generator: Adobe Illustrator 16.0.0, SVG Export Plug-In . SVG Version: 6.00 Build 0)  -->
<!DOCTYPE svg PUBLIC "-//W3C//DTD SVG 1.1//EN" "http://www.w3.org/Graphics/SVG/1.1/DTD/svg11.dtd">
<svg version="1.1" id="Layer_1" xmlns="http://www.w3.org/2000/svg" xmlns:xlink="http://www.w3.org/1999/xlink" x="0px" y="0px"
	 width="40px" height="40px" viewBox="0 0 40 40" enable-background="new 0 0 40 40" xml:space="preserve">
<path fill="#15316B" d="M29.806,10.156C28.063,5.53,24.314,2.6,18.655,2.6C11.453,2.6,6.413,7.948,5.98,14.925
	C2.507,16.036,0,19.579,0,23.592c0,4.911,3.861,9.061,8.431,9.061h1.111c0.69,0,1.25-0.559,1.25-1.25s-0.56-1.25-1.25-1.25H8.431
	c-3.215,0-5.97-3.004-5.97-6.561c0-3.144,2.204-5.979,4.968-6.455l1.135-0.195l-0.102-1.146l-0.009-0.014
	C8.453,9.692,12.461,5.1,18.655,5.1c4.965,0,7.755,2.446,9.045,6.619l0.267,0.86l0.901,0.02c4.644,0.097,8.714,3.865,8.714,8.546
	c0,4.26-2.822,9.008-7.098,9.008h-0.355c-0.689,0-1.25,0.56-1.25,1.25c0,0.691,0.561,1.25,1.25,1.25v-0.004
	c6.25-0.164,9.854-6.137,9.854-11.504C39.98,15.375,35.459,10.764,29.806,10.156L29.806,10.156z M25.248,30.291
	c-0.35-0.364-0.915-0.364-1.264,0l-2.749,3.033V20.74c0-0.689-0.56-1.25-1.25-1.25s-1.25,0.561-1.25,1.25v12.596l-2.661-2.967
	c-0.35-0.364-0.916-0.442-1.265-0.078l-0.315,0.174c-0.35,0.365-0.35,0.955,0,1.32l4.512,4.99c0.006,0.006,0.008,0.014,0.013,0.021
	l0.316,0.331c0.176,0.184,0.405,0.273,0.636,0.271c0.229,0.002,0.46-0.088,0.634-0.271l0.316-0.331
	c0.006-0.007,0.009-0.013,0.015-0.021l4.625-5.068c0.35-0.365,0.35-0.799,0-1.164L25.248,30.291z"/>
</svg>
